<svg width="178" height="35" viewBox="0 0 178 35" fill="none" xmlns="http://www.w3.org/2000/svg">
<path d="M16.1265 3.536V18.832C16.1265 21.2 15.4545 23.024 14.1105 24.304C12.7878 25.584 10.9958 26.224 8.7345 26.224C6.3665 26.224 4.46783 25.552 3.0385 24.208C1.60917 22.864 0.8945 20.9547 0.8945 18.48H6.3345C6.3345 19.4187 6.5265 20.1333 6.9105 20.624C7.2945 21.0933 7.84917 21.328 8.5745 21.328C9.23583 21.328 9.74783 21.1147 10.1105 20.688C10.4732 20.2613 10.6545 19.6427 10.6545 18.832V3.536H16.1265ZM19.4585 17.04C19.4585 15.2053 19.7998 13.5947 20.4825 12.208C21.1865 10.8213 22.1358 9.75467 23.3305 9.008C24.5252 8.26133 25.8585 7.888 27.3305 7.888C28.5892 7.888 29.6878 8.144 30.6265 8.656C31.5865 9.168 32.3225 9.84 32.8345 10.672V8.144H38.3065V26H32.8345V23.472C32.3012 24.304 31.5545 24.976 30.5945 25.488C29.6558 26 28.5572 26.256 27.2985 26.256C25.8478 26.256 24.5252 25.8827 23.3305 25.136C22.1358 24.368 21.1865 23.2907 20.4825 21.904C19.7998 20.496 19.4585 18.8747 19.4585 17.04ZM32.8345 17.072C32.8345 15.7067 32.4505 14.6293 31.6825 13.84C30.9358 13.0507 30.0185 12.656 28.9305 12.656C27.8425 12.656 26.9145 13.0507 26.1465 13.84C25.3998 14.608 25.0265 15.6747 25.0265 17.04C25.0265 18.4053 25.3998 19.4933 26.1465 20.304C26.9145 21.0933 27.8425 21.488 28.9305 21.488C30.0185 21.488 30.9358 21.0933 31.6825 20.304C32.4505 19.5147 32.8345 18.4373 32.8345 17.072ZM50.2973 20.88L54.1693 8.144H59.9933L53.6573 26H46.9053L40.5693 8.144H46.4253L50.2973 20.88ZM61.2085 17.04C61.2085 15.2053 61.5498 13.5947 62.2325 12.208C62.9365 10.8213 63.8858 9.75467 65.0805 9.008C66.2752 8.26133 67.6085 7.888 69.0805 7.888C70.3392 7.888 71.4378 8.144 72.3765 8.656C73.3365 9.168 74.0725 9.84 74.5845 10.672V8.144H80.0565V26H74.5845V23.472C74.0512 24.304 73.3045 24.976 72.3445 25.488C71.4058 26 70.3072 26.256 69.0485 26.256C67.5978 26.256 66.2752 25.8827 65.0805 25.136C63.8858 24.368 62.9365 23.2907 62.2325 21.904C61.5498 20.496 61.2085 18.8747 61.2085 17.04ZM74.5845 17.072C74.5845 15.7067 74.2005 14.6293 73.4325 13.84C72.6858 13.0507 71.7685 12.656 70.6805 12.656C69.5925 12.656 68.6645 13.0507 67.8965 13.84C67.1498 14.608 66.7765 15.6747 66.7765 17.04C66.7765 18.4053 67.1498 19.4933 67.8965 20.304C68.6645 21.0933 69.5925 21.488 70.6805 21.488C71.7685 21.488 72.6858 21.0933 73.4325 20.304C74.2005 19.5147 74.5845 18.4373 74.5845 17.072ZM92.1433 26.224C90.5006 26.224 89.0286 25.9573 87.7273 25.424C86.4259 24.8907 85.3806 24.1013 84.5913 23.056C83.8233 22.0107 83.4179 20.752 83.3753 19.28H89.1993C89.2846 20.112 89.5726 20.752 90.0633 21.2C90.5539 21.6267 91.1939 21.84 91.9833 21.84C92.7939 21.84 93.4339 21.6587 93.9033 21.296C94.3726 20.912 94.6073 20.3893 94.6073 19.728C94.6073 19.1733 94.4153 18.7147 94.0313 18.352C93.6686 17.9893 93.2099 17.6907 92.6553 17.456C92.1219 17.2213 91.3539 16.9547 90.3513 16.656C88.9006 16.208 87.7166 15.76 86.7993 15.312C85.8819 14.864 85.0926 14.2027 84.4313 13.328C83.7699 12.4533 83.4393 11.312 83.4393 9.904C83.4393 7.81333 84.1966 6.18133 85.7113 5.008C87.2259 3.81333 89.1993 3.216 91.6313 3.216C94.1059 3.216 96.1006 3.81333 97.6153 5.008C99.1299 6.18133 99.9406 7.824 100.047 9.936H94.1273C94.0846 9.21067 93.8179 8.64533 93.3273 8.24C92.8366 7.81333 92.2073 7.6 91.4392 7.6C90.7779 7.6 90.2446 7.78133 89.8393 8.144C89.4339 8.48533 89.2313 8.98667 89.2313 9.648C89.2313 10.3733 89.5726 10.9387 90.2552 11.344C90.9379 11.7493 92.0046 12.1867 93.4553 12.656C94.9059 13.1467 96.0793 13.616 96.9753 14.064C97.8926 14.512 98.6819 15.1627 99.3433 16.016C100.005 16.8693 100.335 17.968 100.335 19.312C100.335 20.592 100.005 21.7547 99.3433 22.8C98.7033 23.8453 97.7646 24.6773 96.5273 25.296C95.2899 25.9147 93.8286 26.224 92.1433 26.224ZM102.615 17.072C102.615 15.216 102.988 13.5947 103.735 12.208C104.503 10.8213 105.559 9.75467 106.903 9.008C108.268 8.26133 109.825 7.888 111.575 7.888C113.815 7.888 115.681 8.47467 117.175 9.648C118.689 10.8213 119.681 12.4747 120.151 14.608H114.327C113.836 13.2427 112.887 12.56 111.479 12.56C110.476 12.56 109.676 12.9547 109.079 13.744C108.481 14.512 108.183 15.6213 108.183 17.072C108.183 18.5227 108.481 19.6427 109.079 20.432C109.676 21.2 110.476 21.584 111.479 21.584C112.887 21.584 113.836 20.9013 114.327 19.536H120.151C119.681 21.6267 118.689 23.2693 117.175 24.464C115.66 25.6587 113.793 26.256 111.575 26.256C109.825 26.256 108.268 25.8827 106.903 25.136C105.559 24.3893 104.503 23.3227 103.735 21.936C102.988 20.5493 102.615 18.928 102.615 17.072ZM128.55 11.12C129.19 10.1387 129.99 9.37067 130.95 8.816C131.91 8.24 132.976 7.952 134.15 7.952V13.744H132.646C131.28 13.744 130.256 14.0427 129.574 14.64C128.891 15.216 128.55 16.24 128.55 17.712V26H123.078V8.144H128.55V11.12ZM139.517 6.288C138.557 6.288 137.768 6.01067 137.149 5.456C136.552 4.88 136.253 4.176 136.253 3.344C136.253 2.49067 136.552 1.78667 137.149 1.232C137.768 0.655998 138.557 0.367998 139.517 0.367998C140.456 0.367998 141.224 0.655998 141.821 1.232C142.44 1.78667 142.749 2.49067 142.749 3.344C142.749 4.176 142.44 4.88 141.821 5.456C141.224 6.01067 140.456 6.288 139.517 6.288ZM142.237 8.144V26H136.765V8.144H142.237ZM151.675 10.672C152.208 9.84 152.944 9.168 153.883 8.656C154.821 8.144 155.92 7.888 157.179 7.888C158.651 7.888 159.984 8.26133 161.179 9.008C162.373 9.75467 163.312 10.8213 163.995 12.208C164.699 13.5947 165.051 15.2053 165.051 17.04C165.051 18.8747 164.699 20.496 163.995 21.904C163.312 23.2907 162.373 24.368 161.179 25.136C159.984 25.8827 158.651 26.256 157.179 26.256C155.941 26.256 154.843 26 153.883 25.488C152.944 24.976 152.208 24.3147 151.675 23.504V34.512H146.203V8.144H151.675V10.672ZM159.483 17.04C159.483 15.6747 159.099 14.608 158.331 13.84C157.584 13.0507 156.656 12.656 155.547 12.656C154.459 12.656 153.531 13.0507 152.763 13.84C152.016 14.6293 151.643 15.7067 151.643 17.072C151.643 18.4373 152.016 19.5147 152.763 20.304C153.531 21.0933 154.459 21.488 155.547 21.488C156.635 21.488 157.563 21.0933 158.331 20.304C159.099 19.4933 159.483 18.4053 159.483 17.04ZM177.874 21.36V26H175.09C173.106 26 171.559 25.52 170.45 24.56C169.34 23.5787 168.786 21.9893 168.786 19.792V12.688H166.61V8.144H168.786V3.792H174.258V8.144H177.842V12.688H174.258V19.856C174.258 20.3893 174.386 20.7733 174.642 21.008C174.898 21.2427 175.324 21.36 175.922 21.36H177.874Z" fill="white"/>
</svg>
