<svg width="353" height="125" viewBox="0 0 353 125" fill="none" xmlns="http://www.w3.org/2000/svg">
<path d="M0.895 95V5.39999H54.015V15.896H13.055V43.288H47.231V53.272H13.055V95H0.895ZM64.865 95V28.44H76.385V95H64.865ZM70.625 17.048C68.4063 17.048 66.4863 16.2373 64.865 14.616C63.329 12.9947 62.561 11.1173 62.561 8.98399C62.561 6.50933 63.2863 4.54666 64.737 3.09599C66.1877 1.64533 68.1503 0.919998 70.625 0.919998C72.8437 0.919998 74.721 1.73066 76.257 3.352C77.8783 4.888 78.689 6.76533 78.689 8.98399C78.689 11.3733 77.9637 13.336 76.513 14.872C75.0623 16.3227 73.0997 17.048 70.625 17.048ZM121.313 124.696C117.388 124.696 113.548 124.227 109.793 123.288C106.124 122.349 102.838 120.941 99.937 119.064L104.161 109.08C106.209 110.701 108.598 112.024 111.329 113.048C114.06 114.157 117.388 114.712 121.313 114.712C127.372 114.712 132.108 113.091 135.521 109.848C139.02 106.691 140.769 101.613 140.769 94.616V86.424C139.062 88.472 136.588 90.4347 133.345 92.312C130.188 94.104 126.39 95 121.953 95C116.918 95 112.14 93.72 107.617 91.16C103.094 88.5147 99.425 84.6747 96.609 79.64C93.793 74.6053 92.385 68.5467 92.385 61.464C92.385 54.808 93.7503 48.8773 96.481 43.672C99.297 38.4667 103.052 34.3707 107.745 31.384C112.438 28.3973 117.601 26.904 123.233 26.904C126.988 26.904 130.401 27.544 133.473 28.824C136.545 30.104 139.19 31.6827 141.409 33.56V28.44H151.905V93.464C151.905 100.803 150.625 106.776 148.065 111.384C145.505 115.992 141.921 119.363 137.313 121.496C132.79 123.629 127.457 124.696 121.313 124.696ZM124.513 84.76C127.926 84.76 130.998 83.992 133.729 82.456C136.46 80.92 138.678 79.128 140.385 77.08V42.264C138.508 40.8987 136.246 39.6613 133.601 38.552C130.956 37.4427 127.884 36.888 124.385 36.888C120.886 36.888 117.601 37.8267 114.529 39.704C111.457 41.5813 108.94 44.312 106.977 47.896C105.1 51.3947 104.161 55.704 104.161 60.824C104.161 65.688 105.1 69.912 106.977 73.496C108.94 77.08 111.457 79.8533 114.529 81.816C117.601 83.7787 120.929 84.76 124.513 84.76ZM171.74 95V28.44H182.876V39.576C185.265 35.992 188.295 33.0053 191.964 30.616C195.633 28.1413 199.815 26.904 204.508 26.904C209.799 26.904 214.108 28.184 217.436 30.744C220.849 33.304 223.239 36.7173 224.604 40.984C227.249 37.0587 230.364 33.7307 233.948 31C237.617 28.2693 242.14 26.904 247.516 26.904C254.769 26.904 260.145 29.208 263.644 33.816C267.228 38.3387 269.02 44.2693 269.02 51.608V95H257.5V52.504C257.5 47.896 256.433 44.184 254.3 41.368C252.167 38.4667 249.223 37.016 245.468 37.016C241.628 37.016 238.044 38.4667 234.716 41.368C231.473 44.184 228.615 47.512 226.14 51.352V95H214.62V52.504C214.62 47.896 213.553 44.184 211.42 41.368C209.287 38.4667 206.343 37.016 202.588 37.016C198.833 37.016 195.292 38.424 191.964 41.24C188.636 43.9707 185.735 47.2133 183.26 50.968V95H171.74ZM314.337 96.536C308.79 96.536 303.756 95.128 299.233 92.312C294.71 89.496 291.084 85.528 288.353 80.408C285.708 75.2027 284.385 69.1013 284.385 62.104C284.385 55.448 285.708 49.4747 288.353 44.184C291.084 38.8933 294.796 34.712 299.489 31.64C304.268 28.4827 309.729 26.904 315.873 26.904C319.713 26.904 323.169 27.5867 326.241 28.952C329.398 30.232 332.129 31.8533 334.433 33.816V28.44H344.929V78.872C344.929 82.1147 345.697 84.248 347.233 85.272C348.854 86.2107 350.604 86.68 352.481 86.68L350.049 95.64C341.857 95.64 336.908 92.312 335.201 85.656C333.238 88.3867 330.55 90.904 327.137 93.208C323.809 95.4267 319.542 96.536 314.337 96.536ZM316.897 86.296C320.14 86.296 323.212 85.528 326.113 83.992C329.014 82.3707 331.446 80.3653 333.409 77.976V42.264C331.105 40.6427 328.545 39.3627 325.729 38.424C322.998 37.4 320.097 36.888 317.025 36.888C312.929 36.888 309.302 37.9547 306.145 40.088C303.073 42.136 300.641 45.0373 298.849 48.792C297.057 52.4613 296.161 56.7707 296.161 61.72C296.161 66.4987 297.057 70.7653 298.849 74.52C300.641 78.1893 303.116 81.0907 306.273 83.224C309.43 85.272 312.972 86.296 316.897 86.296Z" fill="white"/>
</svg>
