<svg width="148" height="24" viewBox="0 0 148 24" fill="none" xmlns="http://www.w3.org/2000/svg">
<path d="M11.9244 23L7.25238 14.52H5.94038V23H0.468375V0.535999H9.65238C11.423 0.535999 12.927 0.845332 14.1644 1.464C15.423 2.08267 16.3617 2.936 16.9804 4.024C17.599 5.09067 17.9084 6.28533 17.9084 7.608C17.9084 9.10133 17.4817 10.4347 16.6284 11.608C15.7964 12.7813 14.559 13.6133 12.9164 14.104L18.1004 23H11.9244ZM5.94038 10.648H9.33238C10.335 10.648 11.0817 10.4027 11.5724 9.912C12.0844 9.42133 12.3404 8.728 12.3404 7.832C12.3404 6.97867 12.0844 6.30667 11.5724 5.816C11.0817 5.32533 10.335 5.08 9.33238 5.08H5.94038V10.648ZM26.8154 4.92V9.464H34.1434V13.688H26.8154V18.616H35.1034V23H21.3434V0.535999H35.1034V4.92H26.8154ZM52.6399 19.032H44.2559L42.9119 23H37.1839L45.3119 0.535999H51.6479L59.7759 23H53.9839L52.6399 19.032ZM51.2319 14.808L48.4479 6.584L45.6959 14.808H51.2319ZM61.3216 11.736C61.3216 9.51733 61.8016 7.544 62.7616 5.816C63.7216 4.06667 65.055 2.712 66.7616 1.752C68.4896 0.770665 70.4416 0.279999 72.6176 0.279999C75.2843 0.279999 77.567 0.983999 79.4656 2.392C81.3643 3.8 82.6336 5.72 83.2736 8.152H77.2576C76.8096 7.21333 76.1696 6.49867 75.3376 6.008C74.527 5.51733 73.599 5.272 72.5536 5.272C70.8683 5.272 69.503 5.85867 68.4576 7.032C67.4123 8.20533 66.8896 9.77333 66.8896 11.736C66.8896 13.6987 67.4123 15.2667 68.4576 16.44C69.503 17.6133 70.8683 18.2 72.5536 18.2C73.599 18.2 74.527 17.9547 75.3376 17.464C76.1696 16.9733 76.8096 16.2587 77.2576 15.32H83.2736C82.6336 17.752 81.3643 19.672 79.4656 21.08C77.567 22.4667 75.2843 23.16 72.6176 23.16C70.4416 23.16 68.4896 22.68 66.7616 21.72C65.055 20.7387 63.7216 19.384 62.7616 17.656C61.8016 15.928 61.3216 13.9547 61.3216 11.736ZM102.785 0.535999V4.92H96.8326V23H91.3606V4.92H85.4086V0.535999H102.785ZM126.392 0.535999V15.832C126.392 18.2 125.72 20.024 124.376 21.304C123.053 22.584 121.261 23.224 119 23.224C116.632 23.224 114.733 22.552 113.304 21.208C111.875 19.864 111.16 17.9547 111.16 15.48H116.6C116.6 16.4187 116.792 17.1333 117.176 17.624C117.56 18.0933 118.115 18.328 118.84 18.328C119.501 18.328 120.013 18.1147 120.376 17.688C120.739 17.2613 120.92 16.6427 120.92 15.832V0.535999H126.392ZM138.94 23.224C137.297 23.224 135.825 22.9573 134.524 22.424C133.223 21.8907 132.177 21.1013 131.388 20.056C130.62 19.0107 130.215 17.752 130.172 16.28H135.996C136.081 17.112 136.369 17.752 136.86 18.2C137.351 18.6267 137.991 18.84 138.78 18.84C139.591 18.84 140.231 18.6587 140.7 18.296C141.169 17.912 141.404 17.3893 141.404 16.728C141.404 16.1733 141.212 15.7147 140.828 15.352C140.465 14.9893 140.007 14.6907 139.452 14.456C138.919 14.2213 138.151 13.9547 137.148 13.656C135.697 13.208 134.513 12.76 133.596 12.312C132.679 11.864 131.889 11.2027 131.228 10.328C130.567 9.45333 130.236 8.312 130.236 6.904C130.236 4.81333 130.993 3.18133 132.508 2.008C134.023 0.813333 135.996 0.216 138.428 0.216C140.903 0.216 142.897 0.813333 144.412 2.008C145.927 3.18133 146.737 4.824 146.844 6.936H140.924C140.881 6.21067 140.615 5.64533 140.124 5.24C139.633 4.81333 139.004 4.6 138.236 4.6C137.575 4.6 137.041 4.78133 136.636 5.144C136.231 5.48533 136.028 5.98667 136.028 6.648C136.028 7.37333 136.369 7.93867 137.052 8.344C137.735 8.74933 138.801 9.18667 140.252 9.656C141.703 10.1467 142.876 10.616 143.772 11.064C144.689 11.512 145.479 12.1627 146.14 13.016C146.801 13.8693 147.132 14.968 147.132 16.312C147.132 17.592 146.801 18.7547 146.14 19.8C145.5 20.8453 144.561 21.6773 143.324 22.296C142.087 22.9147 140.625 23.224 138.94 23.224Z" fill="white"/>
</svg>
